<svg width="121" height="31" viewBox="0 0 121 31" fill="none" xmlns="http://www.w3.org/2000/svg">
<path d="M46.4667 23.8817H45.7614C45.724 23.8817 45.6867 23.951 45.6867 23.951C45.2414 26.6977 43.9041 29.5804 37.5521 29.5804H32.092V20.415C32.092 17.4977 34.0227 16.6044 35.1747 16.3297C37.032 15.883 39.1867 16.4324 39.632 17.1884L39.7067 17.223C39.744 17.223 39.8174 17.1884 39.8174 17.1884L41.0427 15.3004L41.0801 15.2324L41.0427 15.1977C40.0401 14.6484 38.888 14.3737 37.7374 14.3737C35.3227 14.3737 33.2427 15.5404 32.092 17.3604V5.68837H36.2894C42.6401 5.68837 42.4267 5.02437 45.7307 11.0817C50.1254 19.139 57.2854 17.5284 55.3627 17.491C47.6387 17.3417 44.5401 4.94437 44.5347 4.93237C44.5307 4.92437 44.5347 4.89771 44.5347 4.89771C44.5347 4.89771 44.5067 4.90037 44.4974 4.89771C44.4854 4.89371 44.4734 4.86304 44.4601 4.86304H26.8174V5.6177C26.8174 5.65237 26.8547 5.68571 26.928 5.68571C27.7827 5.68571 28.5254 7.16171 28.5254 8.98171V26.283C28.5254 28.103 27.7827 29.579 26.928 29.579C26.8534 29.579 26.8174 29.6137 26.8174 29.6484V30.3004C26.8174 30.335 26.8547 30.3697 26.928 30.3697H45.796V30.335L45.8334 30.3004L46.5761 23.9844L46.5387 23.9164C46.5387 23.9164 46.5014 23.8817 46.4641 23.8817H46.4667Z" fill="#3A3632"/>
<path d="M75.4069 29.9016C75.4069 29.9016 73.1629 30.2683 68.5709 27.1336C68.5709 27.1336 65.8802 25.2536 62.4362 18.439C62.3055 18.179 62.3095 17.9016 62.6162 17.8603C64.3309 17.627 65.4602 17.1456 66.6282 16.415C68.6335 15.179 69.6362 14.3283 69.6362 11.8563C69.6362 7.49629 63.5655 4.88696 59.0335 4.88696C59.0335 4.88696 52.5402 4.97763 50.9202 4.97763C50.7909 4.97763 50.8095 5.22696 50.9389 5.23763C53.6762 5.44696 66.0709 4.33229 66.0709 11.8896C66.0709 15.2883 64.3109 17.499 61.2029 17.499H61.1962C58.4869 17.6296 57.3522 17.6056 56.2015 17.4896C54.8895 17.3563 52.5975 16.6216 52.5975 16.6216V26.2843C52.5975 27.9576 51.9695 29.3403 51.1749 29.5523C51.0135 29.595 50.8882 29.7736 50.8882 29.9283V29.9536V29.9976C50.8882 30.2163 51.0815 30.395 51.3189 30.395H57.4042C57.6615 30.395 57.8709 30.2003 57.8709 29.963C57.8709 29.9576 57.8682 29.9536 57.8682 29.9496C57.8682 29.9456 57.8709 29.943 57.8709 29.939C57.8709 29.7643 57.7522 29.603 57.5695 29.559C56.7695 29.3656 56.1629 27.9736 56.1629 26.2856V19.6176L56.1909 18.0483C56.7442 18.055 58.1642 18.2776 58.5295 18.7163L63.2469 25.3496C66.3015 29.0776 69.2749 30.3963 75.4069 30.3963C75.7575 30.3963 75.4029 29.903 75.4029 29.903L75.4069 29.9016Z" fill="#3A3632"/>
<path d="M39.2147 1.03381C38.5493 -0.210186 33.4613 -0.00884905 32.832 0.0458176C32.832 0.0458176 23.5627 0.51915 19.044 8.52848C19.044 8.52848 17.3307 11.4685 12.9533 25.3645C12.4427 26.9845 6.908 8.94848 6.908 8.94848C6.35067 7.60982 6.24 6.44315 6.61067 5.92715C6.73467 5.77515 6.94933 5.66448 7.20533 5.69115V4.86315H0V5.68982C0.930667 5.60715 2.31867 7.11248 3.12 9.01649L12.108 30.7125L12.1453 30.7471C12.1453 30.7471 12.1827 30.7818 12.22 30.7818H13L13.0373 30.7125C13.0373 30.7125 14.1347 28.0725 14.448 27.1765C22.508 4.14315 24.7893 2.18448 32.28 0.281816C33.724 0.000482845 38.1827 -0.236852 38.9013 1.17648C39.0307 1.42982 38.92 1.75248 38.556 2.14182C36.1853 4.68982 27.3773 4.93248 27.288 4.93515L27.308 5.67382C27.676 5.66448 36.348 5.00848 38.8187 2.35248C39.2813 1.85515 39.4133 1.41115 39.2107 1.03381H39.2147Z" fill="#3A3632"/>
<path d="M57.7667 29.5978C56.8827 29.6285 56.1787 28.1751 56.1787 26.3778V13.0125C56.1787 11.2338 54.6187 9.79248 52.6947 9.79248V26.3778C52.6947 28.1525 51.9707 29.5938 51.1014 29.5978C51.0601 29.5978 51.0254 29.6258 51.0254 29.6645V30.3018C51.0254 30.3392 51.0574 30.3685 51.0974 30.3685H57.7387C57.7987 30.3685 57.8481 30.3232 57.8481 30.2685V29.6645C57.8481 29.6245 57.8107 29.5951 57.7667 29.5965V29.5978Z" fill="#3A3632"/>
<path d="M80.221 20.4138C80.221 17.4965 82.1516 16.6031 83.3036 16.3285C85.161 15.8818 87.3156 16.4311 87.761 17.1871L87.8356 17.2218C87.873 17.2218 87.9463 17.1871 87.9463 17.1871L89.1716 15.2991L89.209 15.2311L89.1716 15.1965C88.169 14.6471 87.017 14.3725 85.8663 14.3725C83.4516 14.3725 81.3716 15.5392 80.221 17.3592V5.68715H84.4183C90.769 5.68715 92.069 8.50182 92.5516 11.3165C92.5516 11.3165 92.589 11.3858 92.6263 11.3858H93.3316C93.369 11.3858 93.4063 11.3511 93.4063 11.3511V11.2818L92.701 4.96582L92.6636 4.93115V4.89648H92.6263L92.589 4.86182H74.9463V5.61648C74.9463 5.65115 74.9836 5.68448 75.057 5.68448C75.9116 5.68448 76.6543 7.16048 76.6543 8.98048C76.6543 8.98048 76.793 28.4871 76.3996 29.1618H80.2196V20.4125L80.221 20.4138Z" fill="#3A3632"/>
<path d="M118.484 4.86313H116.107C116.032 4.86313 115.995 4.93113 115.995 4.9658V5.6178C115.995 5.65246 116.032 5.6858 116.107 5.6858C116.961 5.6858 117.704 7.1618 117.704 8.9818V22.0605C114.993 18.1125 111.019 14.4738 107.749 11.4871C104.508 8.5258 101.932 6.14447 102.072 4.8618H96.6812C96.6066 4.8618 96.5706 4.9298 96.5706 4.96447V5.61647C96.5706 5.65113 96.6079 5.68446 96.6812 5.68446C97.5359 5.68446 98.2786 7.16046 98.2786 8.98046V20.2778C96.6799 20.9938 95.1492 22.5125 93.8586 24.1751C89.9892 29.1618 90.7692 29.5685 84.4172 29.5685H80.2199V28.4391H76.6306C76.3332 29.1298 76.4692 29.8085 74.7679 29.8911C74.6932 29.8951 74.6572 29.9258 74.6572 29.9591L74.9466 30.3911H92.5892C92.6026 30.3911 92.6146 30.3618 92.6266 30.3565C92.6346 30.3538 92.6639 30.3565 92.6639 30.3565C92.6639 30.3565 92.6599 30.3298 92.6639 30.3218C92.6679 30.3125 95.4826 21.3791 98.2786 20.7858V26.2805C98.2786 28.1005 97.5359 29.5765 96.6812 29.5765C96.6066 29.5765 96.5706 29.6111 96.5706 29.6458V30.2978C96.5706 30.3325 96.6079 30.3671 96.6812 30.3671H100.841C104.748 29.0591 107.084 25.5911 107.553 23.3351C108.027 21.0565 105.768 19.5058 103.644 19.3111C103.125 19.2285 101.257 19.1978 99.1706 19.9231V7.36713C100.471 9.32446 103.033 11.5551 105.856 13.9925C111.448 18.8165 117.752 24.2631 117.704 30.3671H118.484C118.559 30.3671 118.595 30.3325 118.595 30.2978V8.97913C118.595 7.08447 119.36 5.5618 120.303 5.69113V4.85913H118.483L118.484 4.86313ZM103.492 19.3938C105.265 19.3978 107.077 20.5991 107.364 22.3178C107.648 24.6698 105.277 28.2871 100.843 29.5765C99.9492 29.8365 99.1719 28.1538 99.1719 26.2845V20.3098C100.383 19.7391 101.807 19.3898 103.493 19.3938H103.492Z" fill="#3A3632"/>
</svg>
